<?xml version="1.0" encoding="UTF-8"?>
<!DOCTYPE svg PUBLIC "-//W3C//DTD SVG 1.1//EN" "http://www.w3.org/Graphics/SVG/1.1/DTD/svg11.dtd">
<!-- Creator: CorelDRAW X7 -->
<svg xmlns="http://www.w3.org/2000/svg" xml:space="preserve" width="297mm" height="120mm" version="1.1" style="shape-rendering:geometricPrecision; text-rendering:geometricPrecision; image-rendering:optimizeQuality; fill-rule:evenodd; clip-rule:evenodd"
viewBox="0 0 29700 12000"
 xmlns:xlink="http://www.w3.org/1999/xlink">
 <defs>
  <style type="text/css">
   <![CDATA[
    .str0 {stroke:#2B2A29;stroke-width:50}
    .str1 {stroke:#292926;stroke-width:50}
    .str2 {stroke:#2B2A29;stroke-width:50;stroke-dasharray:100.000000 250.000000}
    .str3 {stroke:#292926;stroke-width:50;stroke-dasharray:100.000000 250.000000}
    .fil2 {fill:none}
    .fil1 {fill:#2B2A29}
    .fil0 {fill:#2B2A29;fill-rule:nonzero}
    .fnt1 {font-weight:normal;font-size:564.44px;font-family:'Arial'}
    .fnt2 {font-weight:normal;font-size:635px;font-family:'Arial'}
    .fnt3 {font-style:italic;font-weight:normal;font-size:541.78px;font-family:'Arial'}
    .fnt0 {font-style:italic;font-weight:normal;font-size:635px;font-family:'Arial'}
   ]]>
  </style>
 </defs>
 <g id="Layer_x0020_1">
  <metadata id="CorelCorpID_0Corel-Layer"/>
  <g>
   <path class="fil0" d="M10601 6769l-9260 0 0 -50 9260 0 0 50zm175 -25l-350 150 5 -9 4 -9 4 -10 4 -9 3 -9 3 -10 3 -9 3 -10 2 -9 2 -9 1 -10 2 -9 1 -9 0 -10 1 -9 0 -10 0 -9 -1 -9 0 -10 -1 -9 -2 -9 -1 -10 -2 -9 -2 -10 -3 -9 -3 -9 -3 -10 -3 -9 -4 -9 -4 -10 -4 -9 -5 -10 0 0 350 150z"/>
  </g>
  <g>
   <path class="fil0" d="M27961 7555l-10768 0 0 -50 10768 0 0 50zm176 -25l-350 150 5 -9 4 -10 4 -9 4 -9 3 -10 3 -9 3 -10 2 -9 2 -9 2 -10 2 -9 1 -9 1 -10 1 -9 1 -10 0 -9 0 -9 -1 -10 -1 -9 -1 -9 -1 -10 -2 -9 -2 -10 -2 -9 -2 -9 -3 -10 -3 -9 -3 -9 -4 -10 -4 -9 -4 -10 -5 -9 0 0 350 150z"/>
  </g>
  <g>
   <path class="fil0" d="M5570 4118l0 4382 -50 0 0 -4382 50 0zm-25 -176l150 350 -9 -5 -10 -4 -9 -4 -10 -4 -9 -3 -9 -3 -10 -3 -9 -2 -9 -2 -10 -2 -9 -2 -10 -1 -9 -1 -9 -1 -10 -1 -9 0 -9 0 -10 1 -9 1 -10 1 -9 1 -9 2 -10 2 -9 2 -9 2 -10 3 -9 3 -10 3 -9 4 -9 4 -10 4 -9 5 0 0 150 -350z"/>
  </g>
  <g>
   <path class="fil0" d="M17543 4455l0 3563 -50 0 0 -3563 50 0zm-25 -176l150 350 -10 -4 -9 -5 -9 -4 -10 -3 -9 -4 -9 -3 -10 -2 -9 -3 -10 -2 -9 -2 -9 -2 -10 -1 -9 -1 -9 -1 -10 0 -9 0 -10 0 -9 0 -9 1 -10 1 -9 1 -9 2 -10 2 -9 2 -10 3 -9 2 -9 3 -10 4 -9 3 -9 4 -10 5 -9 4 0 0 150 -350z"/>
  </g>
  <text x="10578" y="7608"  class="fil1 fnt0">t </text>
  <text x="27891" y="8422"  class="fil1 fnt0">f</text>
  <path class="fil2 str0" d="M4494 6744l208 -927c195,-404 438,-793 843,-871"/>
  <path class="fil2 str1" d="M6631 6733l-208 -927c-195,-405 -438,-794 -843,-872"/>
  <path class="fil2 str0" d="M6654 6779l208 928c195,404 438,793 843,871"/>
  <path class="fil2 str1" d="M4506 6756l-209 927c-194,405 -438,794 -842,871"/>
  <path class="fil2 str1" d="M2450 6756l208 927c195,405 438,794 843,871"/>
  <path class="fil2 str0" d="M8733 6803l-208 927c-195,405 -438,793 -843,871"/>
  <path class="fil2 str2" d="M8709 6779l209 -927c194,-404 438,-793 842,-871"/>
  <path class="fil2 str3" d="M2427 6686l-208 -927c-195,-405 -438,-793 -843,-871"/>
  <line class="fil2 str0" x1="3490" y1="6581" x2="3490" y2= "7071" />
  <line class="fil2 str0" x1="7764" y1="6499" x2="7764" y2= "6990" />
  <text x="6865" y="7486"  class="fil1 fnt1">0,5 ms </text>
  <text x="2442" y="6428"  class="fil1 fnt1">- 0,5 ms </text>
  <text x="5958" y="4566"  class="fil1 fnt0">A</text>
  <g>
   <path class="fil0" d="M19168 5647l0 1856 -50 0 0 -1856 50 0zm-25 -176l150 350 -9 -4 -10 -5 -9 -4 -9 -3 -10 -4 -9 -3 -9 -2 -10 -3 -9 -2 -10 -2 -9 -2 -9 -1 -10 -1 -9 -1 -9 0 -10 0 -9 0 -10 0 -9 1 -9 1 -10 1 -9 2 -9 2 -10 2 -9 3 -10 2 -9 3 -9 4 -10 3 -9 4 -9 5 -10 4 0 0 150 -350z"/>
  </g>
  <text x="18495" y="8673"  class="fil1 fnt2">1 kHz</text>
  <text x="2047" y="2636"  class="fil1 fnt2">Time domain cosine wave</text>
  <text x="17286" y="2805"  class="fil1 fnt2">Spectrum of a cosine wave</text>
  <g>
   <path class="fil0" d="M12642 6067l350 -150 0 0 -5 10 -4 9 -4 9 -4 10 -3 9 -3 9 -3 10 -3 9 -2 10 -2 9 -1 9 -2 10 -1 9 0 9 -1 10 0 9 0 10 1 9 0 9 1 10 2 9 1 9 2 10 2 9 3 10 3 9 3 9 3 10 4 9 4 9 4 10 5 9 -350 -150zm425 -25l0 50 -250 0 0 -50 250 0zm400 0l0 50 -250 0 0 -50 250 0zm400 0l0 50 -250 0 0 -50 250 0zm400 0l0 50 -250 0 0 -50 250 0zm400 0l0 50 -250 0 0 -50 250 0zm250 25l-350 150 5 -9 4 -10 4 -9 4 -9 3 -10 3 -9 3 -9 2 -10 2 -9 2 -10 2 -9 1 -9 1 -10 1 -9 1 -9 0 -10 0 -9 -1 -10 -1 -9 -1 -9 -1 -10 -2 -9 -2 -9 -2 -10 -2 -9 -3 -10 -3 -9 -3 -9 -4 -10 -4 -9 -4 -9 -5 -10 0 0 350 150z"/>
  </g>
  <g>
   <path class="fil0" d="M3506 9451l0 -42 196 -129 28 42 -197 129 0 -42 -27 42zm0 0l-33 -21 33 -21 0 42zm211 106l-13 21 -198 -127 27 -42 198 127 -14 21zm4002 -125l-4161 23 0 -50 4160 -23 1 50zm52 -4l-27 -42 0 42 -198 -127 27 -42 198 127 0 42zm0 0l0 -42 32 21 -32 21zm-210 108l-14 -21 197 -129 27 42 -197 129 -13 -21z"/>
  </g>
  <text x="18935" y="5177"  class="fil1 fnt3">A</text>
  <text x="4504" y="10507"  class="fil1 fnt0">T</text>
  <text x="4892" y="10507"  class="fil1 fnt2"> = 1 ms</text>
  <text x="18359" y="9498"  class="fil1 fnt0">f</text>
  <text x="19788" y="9498"  class="fil1 fnt0">T</text>
  <text x="18535" y="9498"  class="fil1 fnt2"> = 1/</text>
 </g>
</svg>
