<?xml version="1.0" encoding="UTF-8"?>
<!DOCTYPE svg PUBLIC "-//W3C//DTD SVG 1.1//EN" "http://www.w3.org/Graphics/SVG/1.1/DTD/svg11.dtd">
<!-- Creator: CorelDRAW X7 -->
<svg xmlns="http://www.w3.org/2000/svg" xml:space="preserve" width="297mm" height="174.5mm" version="1.1" style="shape-rendering:geometricPrecision; text-rendering:geometricPrecision; image-rendering:optimizeQuality; fill-rule:evenodd; clip-rule:evenodd"
viewBox="0 0 29700 17450"
 xmlns:xlink="http://www.w3.org/1999/xlink">
 <defs>
  <style type="text/css">
   <![CDATA[
    .str0 {stroke:#2B2A29;stroke-width:50}
    .fil2 {fill:none}
    .fil1 {fill:#2B2A29}
    .fil0 {fill:#2B2A29;fill-rule:nonzero}
    .fnt3 {font-weight:normal;font-size:635px;font-family:'Arial'}
    .fnt1 {font-weight:normal;font-size:846.66px;font-family:'Arial'}
    .fnt0 {font-style:italic;font-weight:normal;font-size:635px;font-family:'Arial'}
    .fnt2 {font-style:italic;font-weight:normal;font-size:846.66px;font-family:'Arial'}
   ]]>
  </style>
 </defs>
 <g id="Layer_x0020_1">
  <metadata id="CorelCorpID_0Corel-Layer"/>
  <g>
   <path class="fil0" d="M27725 13516l-9251 0 0 -50 9251 0 0 50zm176 -25l-350 150 5 -9 4 -9 4 -10 3 -9 4 -10 3 -9 3 -9 2 -10 2 -9 2 -9 2 -10 1 -9 1 -10 1 -9 0 -9 0 -10 0 -9 0 -9 -1 -10 -1 -9 -1 -10 -2 -9 -2 -9 -2 -10 -2 -9 -3 -9 -3 -10 -4 -9 -3 -10 -4 -9 -4 -9 -5 -10 0 0 350 150z"/>
  </g>
  <g>
   <path class="fil0" d="M18779 10867l0 3044 -50 0 0 -3044 50 0zm-25 -176l150 350 -10 -4 -9 -5 -10 -4 -9 -3 -9 -4 -10 -3 -9 -2 -9 -3 -10 -2 -9 -2 -10 -2 -9 -1 -9 -1 -10 -1 -9 0 -9 0 -10 0 -9 0 -10 1 -9 1 -9 1 -10 2 -9 2 -9 2 -10 3 -9 2 -10 3 -9 4 -9 3 -10 4 -9 5 -9 4 0 0 150 -350z"/>
  </g>
  <g>
   <path class="fil0" d="M10650 7326l-9251 0 0 -50 9251 0 0 50zm176 -25l-350 150 5 -9 4 -9 4 -10 4 -9 3 -10 3 -9 3 -9 2 -10 2 -9 2 -9 2 -10 1 -9 1 -10 1 -9 0 -9 1 -10 -1 -9 0 -9 -1 -10 -1 -9 -1 -10 -2 -9 -2 -9 -2 -10 -2 -9 -3 -9 -3 -10 -3 -9 -4 -10 -4 -9 -4 -9 -5 -10 0 0 350 150z"/>
  </g>
  <g>
   <path class="fil0" d="M5717 5284l0 2017 -50 0 0 -2017 50 0zm-25 -176l150 350 -9 -5 -9 -4 -10 -4 -9 -4 -9 -3 -10 -3 -9 -3 -10 -2 -9 -2 -9 -2 -10 -2 -9 -1 -9 -1 -10 -1 -9 0 -10 -1 -9 1 -9 0 -10 1 -9 1 -9 1 -10 2 -9 2 -10 2 -9 2 -9 3 -10 3 -9 3 -9 4 -10 4 -9 4 -10 5 0 0 150 -350z"/>
  </g>
  <text x="10516" y="8108"  class="fil1 fnt0">t </text>
  <text x="27664" y="14438"  class="fil1 fnt0">f</text>
  <rect class="fil2 str0" x="11923" y="2363" width="4527" height="3454"/>
  <text x="13501" y="3949"  class="fil1 fnt1">LPF</text>
  <text x="13995" y="4895"  class="fil1 fnt2">B</text>
  <g>
   <path class="fil0" d="M20148 4115l-3745 0 0 -50 3745 0 0 50zm176 -25l-350 150 4 -9 4 -10 4 -9 4 -9 3 -10 3 -9 3 -9 3 -10 2 -9 2 -10 1 -9 2 -9 1 -10 0 -9 1 -9 0 -10 0 -9 -1 -10 0 -9 -1 -9 -2 -10 -1 -9 -2 -10 -2 -9 -3 -9 -3 -10 -3 -9 -3 -9 -4 -10 -4 -9 -4 -10 -4 -9 0 0 350 150z"/>
  </g>
  <g>
   <path class="fil0" d="M11747 4162l-3744 0 0 -50 3744 0 0 50zm176 -25l-350 150 4 -10 5 -9 4 -9 3 -10 4 -9 3 -9 3 -10 2 -9 2 -10 2 -9 2 -9 1 -10 1 -9 1 -9 0 -10 0 -9 0 -10 0 -9 -1 -9 -1 -10 -1 -9 -2 -9 -2 -10 -2 -9 -2 -10 -3 -9 -3 -9 -4 -10 -3 -9 -4 -9 -5 -10 -4 -9 0 0 350 150z"/>
  </g>
  <g>
   <path class="fil0" d="M12400 12393l0 50 -250 0 0 -50 250 0zm400 0l0 50 -250 0 0 -50 250 0zm400 0l0 50 -250 0 0 -50 250 0zm400 0l0 50 -250 0 0 -50 250 0zm400 0l0 50 -250 0 0 -50 250 0zm400 0l0 50 -250 0 0 -50 250 0zm400 0l0 50 -250 0 0 -50 250 0zm400 0l0 50 -250 0 0 -50 250 0zm400 0l0 50 -250 0 0 -50 250 0zm294 50l-144 0 0 -50 144 0 0 50zm176 -25l-350 150 5 -9 4 -10 4 -9 3 -9 4 -10 3 -9 3 -10 2 -9 2 -9 2 -10 2 -9 1 -9 1 -10 1 -9 0 -10 1 -9 -1 -9 0 -10 -1 -9 -1 -9 -1 -10 -2 -9 -2 -10 -2 -9 -2 -9 -3 -10 -3 -9 -4 -9 -3 -10 -4 -9 -4 -10 -5 -9 0 0 350 150z"/>
  </g>
  <g>
   <path class="fil0" d="M5569 11817l-150 -350 0 0 10 5 9 4 9 4 10 4 9 3 10 3 9 3 9 3 10 2 9 2 9 1 10 2 9 1 10 0 9 1 9 0 10 0 9 -1 9 0 10 -1 9 -2 10 -1 9 -2 9 -2 10 -3 9 -3 9 -3 10 -3 9 -4 10 -4 9 -4 9 -5 -150 350zm-25 -425l50 0 0 250 -50 0 0 -250zm0 -400l50 0 0 250 -50 0 0 -250zm0 -400l50 0 0 250 -50 0 0 -250zm0 -400l50 0 0 250 -50 0 0 -250zm0 -400l50 0 0 250 -50 0 0 -250zm0 -400l50 0 0 250 -50 0 0 -250zm50 -379l0 229 -50 0 0 -229 50 0zm-25 -176l150 350 -9 -5 -9 -4 -10 -4 -9 -3 -10 -4 -9 -3 -9 -3 -10 -2 -9 -2 -9 -2 -10 -2 -9 -1 -10 -1 -9 -1 -9 0 -10 -1 -9 1 -9 0 -10 1 -9 1 -10 1 -9 2 -9 2 -10 2 -9 2 -9 3 -10 3 -9 4 -10 3 -9 4 -9 4 -10 5 0 0 150 -350z"/>
  </g>
  <polyline class="fil2 str0" points="4852,7301 4852,5761 6486,5785 6486,7301 "/>
  <polyline class="fil2 str0" points="1539,7325 1539,5785 3172,5808 3172,7325 "/>
  <polyline class="fil2 str0" points="8096,7325 8096,5785 9729,5808 9729,7325 "/>
  <line class="fil2 str0" x1="8936" y1="7112" x2="8936" y2= "7535" />
  <text x="8298" y="8390"  class="fil1 fnt3">1 ms </text>
  <line class="fil2 str0" x1="2309" y1="7066" x2="2309" y2= "7488" />
  <text x="1369" y="8301"  class="fil1 fnt3">- 1 ms </text>
  <text x="4293" y="5882"  class="fil1 fnt0">A</text>
  <text x="1391" y="2263"  class="fil1 fnt3">Periodic rectangular pulse train</text>
  <g>
   <path class="fil0" d="M28315 7396l-9252 0 0 -50 9252 0 0 50zm176 -25l-350 150 4 -9 5 -9 4 -10 3 -9 4 -10 3 -9 2 -9 3 -10 2 -9 2 -9 2 -10 1 -9 1 -10 1 -9 0 -9 0 -10 0 -9 0 -9 -1 -10 -1 -9 -1 -10 -2 -9 -2 -9 -2 -10 -3 -9 -2 -9 -3 -10 -4 -9 -3 -10 -4 -9 -5 -9 -4 -10 0 0 350 150z"/>
  </g>
  <g>
   <path class="fil0" d="M23382 5354l0 2017 -50 0 0 -2017 50 0zm-25 -176l150 350 -9 -5 -10 -4 -9 -4 -9 -4 -10 -3 -9 -3 -10 -3 -9 -2 -9 -2 -10 -2 -9 -2 -9 -1 -10 -1 -9 -1 -10 0 -9 -1 -9 1 -10 0 -9 1 -9 1 -10 1 -9 2 -10 2 -9 2 -9 2 -10 3 -9 3 -9 3 -10 4 -9 4 -10 4 -9 5 0 0 150 -350z"/>
  </g>
  <text x="28204" y="8271"  class="fil1 fnt0">t </text>
  <path class="fil2 str0" d="M19063 7371c343,-373 476,-1363 713,-1460l559 8c184,73 338,825 700,1452"/>
  <line class="fil2 str0" x1="26601" y1="7182" x2="26601" y2= "7605" />
  <text x="26013" y="8434"  class="fil1 fnt3">1 ms </text>
  <line class="fil2 str0" x1="19974" y1="7136" x2="19974" y2= "7558" />
  <text x="19230" y="8525"  class="fil1 fnt3">- 1 ms </text>
  <text x="22369" y="6023"  class="fil1 fnt0">A</text>
  <text x="21112" y="2145"  class="fil1 fnt3">Periodic pulse train</text>
  <text x="21112" y="2854"  class="fil1 fnt3">after low pass filtering</text>
  <g>
   <path class="fil0" d="M11578 7370l0 50 -250 0 0 -50 250 0zm400 0l0 50 -250 0 0 -50 250 0zm400 0l0 50 -250 0 0 -50 250 0zm400 0l0 50 -250 0 0 -50 250 0zm400 0l0 50 -250 0 0 -50 250 0zm400 0l0 50 -250 0 0 -50 250 0zm400 0l0 50 -250 0 0 -50 250 0zm400 0l0 50 -250 0 0 -50 250 0zm400 0l0 50 -250 0 0 -50 250 0zm400 0l0 50 -250 0 0 -50 250 0zm400 0l0 50 -250 0 0 -50 250 0zm400 0l0 50 -250 0 0 -50 250 0zm400 0l0 50 -250 0 0 -50 250 0zm400 0l0 50 -250 0 0 -50 250 0zm400 0l0 50 -250 0 0 -50 250 0zm400 0l0 50 -250 0 0 -50 250 0zm224 50l-74 0 0 -50 74 0 0 50zm176 -25l-350 150 5 -10 4 -9 4 -9 4 -10 3 -9 3 -10 3 -9 2 -9 3 -10 2 -9 1 -9 2 -10 1 -9 0 -10 1 -9 0 -9 0 -10 -1 -9 0 -9 -1 -10 -2 -9 -1 -10 -2 -9 -3 -9 -2 -10 -3 -9 -3 -9 -3 -10 -4 -9 -4 -10 -4 -9 -5 -9 0 0 350 150z"/>
  </g>
  <g>
   <path class="fil0" d="M19665 12104l0 1341 -50 0 0 -1341 50 0zm-25 -176l150 350 -9 -5 -9 -4 -10 -4 -9 -3 -10 -4 -9 -3 -9 -3 -10 -2 -9 -2 -9 -2 -10 -2 -9 -1 -10 -1 -9 -1 -9 0 -10 -1 -9 1 -9 0 -10 1 -9 1 -10 1 -9 2 -9 2 -10 2 -9 2 -9 3 -10 3 -9 4 -10 3 -9 4 -9 4 -10 5 0 0 150 -350z"/>
  </g>
  <g>
   <path class="fil0" d="M18779 12781l0 769 -50 0 0 -769 50 0zm-25 -176l150 350 -10 -5 -9 -4 -10 -4 -9 -4 -9 -3 -10 -3 -9 -3 -9 -2 -10 -3 -9 -2 -10 -1 -9 -1 -9 -1 -10 -1 -9 -1 -9 0 -10 0 -9 1 -10 1 -9 1 -9 1 -10 1 -9 2 -9 3 -10 2 -9 3 -10 3 -9 3 -9 4 -10 4 -9 4 -9 5 0 0 150 -350z"/>
  </g>
  <g>
   <path class="fil0" d="M20552 12501l0 973 -50 0 0 -973 50 0zm-25 -176l150 350 -9 -5 -10 -4 -9 -4 -9 -4 -10 -3 -9 -3 -10 -3 -9 -2 -9 -3 -10 -2 -9 -1 -9 -1 -10 -1 -9 -1 -10 -1 -9 0 -9 0 -10 1 -9 1 -9 1 -10 1 -9 1 -10 2 -9 3 -9 2 -10 3 -9 3 -9 3 -10 4 -9 4 -10 4 -9 5 0 0 150 -350z"/>
  </g>
  <g>
   <path class="fil0" d="M21439 12874l0 670 -50 0 0 -670 50 0zm-25 -176l150 350 -10 -4 -9 -5 -9 -4 -10 -3 -9 -4 -9 -3 -10 -3 -9 -2 -10 -2 -9 -2 -9 -2 -10 -1 -9 -1 -9 -1 -10 0 -9 0 -10 0 -9 0 -9 1 -10 1 -9 1 -9 2 -10 2 -9 2 -10 2 -9 3 -9 3 -10 4 -9 3 -9 4 -10 5 -9 4 0 0 150 -350z"/>
  </g>
  <text x="19454" y="14158"  class="fil1 fnt3">1</text>
  <text x="19084" y="14867"  class="fil1 fnt3">kHz</text>
  <g>
   <path class="fil0" d="M10247 13446l-9251 0 0 -50 9251 0 0 50zm176 -25l-350 150 5 -9 4 -9 4 -10 3 -9 4 -10 3 -9 3 -9 2 -10 2 -9 2 -9 2 -10 1 -9 1 -10 1 -9 0 -9 0 -10 0 -9 0 -9 -1 -10 -1 -9 -1 -10 -2 -9 -2 -9 -2 -10 -2 -9 -3 -9 -3 -10 -4 -9 -3 -10 -4 -9 -4 -9 -5 -10 0 0 350 150z"/>
  </g>
  <g>
   <path class="fil0" d="M1301 10797l0 3044 -50 0 0 -3044 50 0zm-25 -176l150 350 -10 -4 -9 -5 -9 -4 -10 -3 -9 -4 -10 -3 -9 -2 -9 -3 -10 -2 -9 -2 -9 -2 -10 -1 -9 -1 -10 -1 -9 0 -9 0 -10 0 -9 0 -10 1 -9 1 -9 1 -10 2 -9 2 -9 2 -10 3 -9 2 -10 3 -9 4 -9 3 -10 4 -9 5 -9 4 0 0 150 -350z"/>
  </g>
  <text x="10186" y="14368"  class="fil1 fnt0">f</text>
  <g>
   <path class="fil0" d="M2187 12034l0 1341 -50 0 0 -1341 50 0zm-25 -176l150 350 -9 -5 -9 -4 -10 -4 -9 -3 -9 -4 -10 -3 -9 -3 -10 -2 -9 -2 -9 -2 -10 -2 -9 -1 -9 -1 -10 -1 -9 0 -10 -1 -9 1 -9 0 -10 1 -9 1 -10 1 -9 2 -9 2 -10 2 -9 2 -9 3 -10 3 -9 4 -10 3 -9 4 -9 4 -10 5 0 0 150 -350z"/>
  </g>
  <g>
   <path class="fil0" d="M1301 12711l0 769 -50 0 0 -769 50 0zm-25 -176l150 350 -10 -5 -9 -4 -9 -4 -10 -4 -9 -3 -10 -3 -9 -3 -9 -2 -10 -3 -9 -2 -9 -1 -10 -1 -9 -1 -10 -1 -9 -1 -9 0 -10 0 -9 1 -10 1 -9 1 -9 1 -10 1 -9 2 -9 3 -10 2 -9 3 -10 3 -9 3 -9 4 -10 4 -9 4 -9 5 0 0 150 -350z"/>
  </g>
  <g>
   <path class="fil0" d="M3074 12361l0 1043 -50 0 0 -1043 50 0zm-25 -176l150 350 -9 -5 -10 -4 -9 -4 -9 -4 -10 -3 -9 -3 -10 -3 -9 -2 -9 -3 -10 -2 -9 -1 -9 -1 -10 -2 -9 0 -10 -1 -9 0 -9 0 -10 1 -9 0 -9 2 -10 1 -9 1 -10 2 -9 3 -9 2 -10 3 -9 3 -9 3 -10 4 -9 4 -10 4 -9 5 0 0 150 -350z"/>
  </g>
  <g>
   <path class="fil0" d="M3961 12781l0 693 -50 0 0 -693 50 0zm-25 -176l150 350 -10 -5 -9 -4 -9 -4 -10 -4 -9 -3 -9 -3 -10 -3 -9 -2 -10 -3 -9 -2 -9 -1 -10 -1 -9 -1 -9 -1 -10 -1 -9 0 -10 0 -9 1 -9 1 -10 1 -9 1 -9 1 -10 2 -9 3 -10 2 -9 3 -9 3 -10 3 -9 4 -9 4 -10 4 -9 5 0 0 150 -350z"/>
  </g>
  <text x="1988" y="14173"  class="fil1 fnt3">1</text>
  <text x="1618" y="14882"  class="fil1 fnt3">kHz</text>
  <g>
   <path class="fil0" d="M4801 12967l0 516 -50 0 0 -516 50 0zm-25 -176l150 350 -9 -4 -10 -4 -9 -4 -10 -4 -9 -3 -9 -3 -10 -3 -9 -3 -9 -2 -10 -2 -9 -1 -10 -2 -9 -1 -9 -1 -10 0 -9 0 -9 0 -10 0 -9 1 -10 1 -9 2 -9 1 -10 2 -9 2 -9 3 -10 3 -9 3 -10 3 -9 4 -9 4 -10 4 -9 4 0 0 150 -350z"/>
  </g>
  <g>
   <path class="fil0" d="M5594 13177l0 333 -50 0 0 -333 50 0zm-25 -176l150 350 -9 -4 -9 -4 -10 -4 -9 -4 -10 -3 -9 -3 -9 -3 -10 -3 -9 -2 -9 -2 -10 -1 -9 -2 -10 -1 -9 -1 -9 0 -10 0 -9 0 -9 0 -10 1 -9 1 -10 2 -9 1 -9 2 -10 2 -9 3 -9 3 -10 3 -9 3 -10 4 -9 4 -9 4 -10 4 0 0 150 -350z"/>
  </g>
  <g>
   <path class="fil0" d="M18820 15139l0 -42 196 -129 28 42 -197 129 0 -42 -27 42zm0 0l-33 -21 33 -21 0 42zm211 106l-13 21 -198 -127 27 -42 198 127 -14 21zm2757 -121l-2916 19 0 -50 2916 -19 0 50zm53 -5l-28 -41 1 41 -199 -126 27 -42 199 126 0 42zm0 0l0 -42 32 21 -32 21zm-210 109l-14 -21 196 -129 28 41 -197 130 -13 -21z"/>
  </g>
  <text x="18905" y="15874"  class="fil1 fnt0">B=</text>
  <text x="19700" y="15874"  class="fil1 fnt3">3.5 kHz</text>
  <g>
   <path class="fil0" d="M23257 12121l-150 -350 0 0 10 4 9 5 9 4 10 3 9 4 10 3 9 2 9 3 10 2 9 2 9 2 10 1 9 1 10 1 9 0 9 0 10 0 9 0 9 -1 10 -1 9 -1 10 -2 9 -2 9 -2 10 -3 9 -2 9 -3 10 -4 9 -3 10 -4 9 -5 9 -4 -150 350zm-25 -426l50 0 0 250 -50 0 0 -250zm0 -400l50 0 0 250 -50 0 0 -250zm0 -400l50 0 0 250 -50 0 0 -250zm0 -400l50 0 0 250 -50 0 0 -250zm0 -400l50 0 0 250 -50 0 0 -250zm25 -184l150 350 -9 -4 -9 -5 -10 -3 -9 -4 -10 -4 -9 -3 -9 -2 -10 -3 -9 -2 -9 -2 -10 -2 -9 -1 -10 -1 -9 -1 -9 0 -10 0 -9 0 -9 0 -10 1 -9 1 -10 1 -9 2 -9 2 -10 2 -9 3 -9 2 -10 3 -9 4 -10 4 -9 3 -9 5 -10 4 0 0 150 -350z"/>
  </g>
  <text x="4616" y="14305"  class="fil1 fnt3">4</text>
  <text x="4246" y="15014"  class="fil1 fnt3">kHz</text>
  <path class="fil2 str0" d="M22371 7427c343,-373 475,-1364 713,-1460l559 8c184,73 338,824 700,1452"/>
  <path class="fil2 str0" d="M25538 7386c343,-373 475,-1364 713,-1461l559 8c184,73 338,825 700,1453"/>
 </g>
</svg>
