<?xml version="1.0" encoding="UTF-8"?>
<!DOCTYPE svg PUBLIC "-//W3C//DTD SVG 1.1//EN" "http://www.w3.org/Graphics/SVG/1.1/DTD/svg11.dtd">
<!-- Creator: CorelDRAW X7 -->
<svg xmlns="http://www.w3.org/2000/svg" xml:space="preserve" width="297mm" height="130mm" version="1.1" style="shape-rendering:geometricPrecision; text-rendering:geometricPrecision; image-rendering:optimizeQuality; fill-rule:evenodd; clip-rule:evenodd"
viewBox="0 0 29700 13000"
 xmlns:xlink="http://www.w3.org/1999/xlink">
 <defs>
  <style type="text/css">
   <![CDATA[
    .str0 {stroke:#2B2A29;stroke-width:50}
    .str1 {stroke:black;stroke-width:7.62}
    .str2 {stroke:black;stroke-width:49.39;stroke-linecap:round;stroke-linejoin:round}
    .str3 {stroke:#2B2A29;stroke-width:25;stroke-dasharray:50.000000 75.000000}
    .fil0 {fill:none}
    .fil3 {fill:none;fill-rule:nonzero}
    .fil1 {fill:#2B2A29}
    .fil4 {fill:black}
    .fil2 {fill:#2B2A29;fill-rule:nonzero}
    .fnt3 {font-weight:normal;font-size:564.44px;font-family:'Arial'}
    .fnt0 {font-weight:normal;font-size:846.67px;font-family:'Arial'}
    .fnt2 {font-weight:normal;font-size:1270px;font-family:'Arial'}
    .fnt1 {font-weight:normal;font-size:1693.33px;font-family:'Arial'}
    .fnt5 {font-style:italic;font-weight:normal;font-size:564.44px;font-family:'Arial'}
    .fnt4 {font-weight:normal;font-size:282.22px;font-family:'Arial';baseline-shift:super}
    .fnt6 {font-weight:normal;font-size:282.22px;font-family:'Arial';baseline-shift:sub}
   ]]>
  </style>
 </defs>
 <g id="Layer_x0020_1">
  <metadata id="CorelCorpID_0Corel-Layer"/>
  <rect class="fil0 str0" x="13055" y="7566" width="2033" height="1277"/>
  <rect class="fil0 str0" x="9615" y="5867" width="1728" height="1728"/>
  <ellipse class="fil0 str0" cx="14087" cy="10915" rx="575" ry="595"/>
  <ellipse class="fil0 str0" cx="14055" cy="2615" rx="575" ry="595"/>
  <ellipse class="fil0 str0" cx="14009" cy="5474" rx="767" ry="793"/>
  <ellipse class="fil0 str0" cx="17714" cy="6812" rx="575" ry="595"/>
  <text x="13843" y="2951"  class="fil1 fnt0">X</text>
  <text x="13807" y="11218"  class="fil1 fnt0">X</text>
  <text x="13557" y="6122"  class="fil1 fnt1">~</text>
  <text x="17446" y="7356"  class="fil1 fnt2">+</text>
  <line class="fil0 str0" x1="14630" y1="2615" x2="17748" y2= "2615" />
  <line class="fil0 str0" x1="14696" y1="10915" x2="17814" y2= "10915" />
  <g>
   <path class="fil2" d="M17723 6042l0 -3427 50 0 0 3427 -50 0zm25 176l-150 -350 9 4 10 4 9 4 9 4 10 3 9 4 9 2 10 3 9 2 10 2 9 2 9 1 10 1 9 1 9 0 10 0 9 0 10 0 9 -1 9 -1 10 -1 9 -2 9 -2 10 -2 9 -3 10 -2 9 -4 9 -3 10 -4 9 -4 9 -4 10 -4 0 0 -150 350z"/>
  </g>
  <g>
   <path class="fil2" d="M17841 7532l0 3424 -50 0 0 -3424 50 0zm-25 -176l150 350 -10 -5 -9 -4 -10 -4 -9 -4 -9 -3 -10 -3 -9 -3 -9 -2 -10 -3 -9 -2 -10 -1 -9 -1 -9 -2 -10 0 -9 -1 -9 0 -10 0 -9 1 -10 0 -9 2 -9 1 -10 1 -9 2 -9 3 -10 2 -9 3 -10 3 -9 3 -9 4 -10 4 -9 4 -9 5 0 0 150 -350z"/>
  </g>
  <g>
   <path class="fil2" d="M14028 10144l0 -1301 50 0 0 1301 -50 0zm25 176l-150 -350 9 5 9 4 10 4 9 4 10 3 9 3 9 3 10 2 9 3 9 2 10 1 9 2 10 1 9 0 9 1 10 0 9 0 9 -1 10 0 9 -1 10 -2 9 -1 9 -2 10 -3 9 -2 9 -3 10 -3 9 -3 10 -4 9 -4 9 -4 10 -5 0 0 -150 350z"/>
  </g>
  <g>
   <path class="fil2" d="M14030 7390l0 -1076 50 0 0 1076 -50 0zm25 176l-150 -350 9 5 10 4 9 4 9 4 10 3 9 3 10 3 9 2 9 3 10 2 9 1 9 1 10 1 9 1 10 1 9 0 9 0 10 -1 9 -1 9 -1 10 -1 9 -1 10 -2 9 -3 9 -2 10 -3 9 -3 9 -3 10 -4 9 -4 10 -4 9 -5 0 0 -150 350z"/>
  </g>
  <g>
   <path class="fil2" d="M14046 3385l0 1312 -50 0 0 -1312 50 0zm-25 -176l150 350 -9 -4 -10 -5 -9 -4 -9 -3 -10 -4 -9 -3 -10 -2 -9 -3 -9 -2 -10 -2 -9 -2 -9 -1 -10 -1 -9 -1 -10 0 -9 0 -9 0 -10 0 -9 1 -9 1 -10 1 -9 2 -10 2 -9 2 -9 3 -10 2 -9 3 -9 4 -10 3 -9 4 -10 5 -9 4 0 0 150 -350z"/>
  </g>
  <line class="fil0 str0" x1="10464" y1="7595" x2="10464" y2= "10887" />
  <g>
   <path class="fil2" d="M13337 10906l-2873 0 0 -50 2873 0 0 50zm176 -25l-350 150 5 -9 4 -10 4 -9 4 -9 3 -10 3 -9 3 -9 2 -10 3 -9 2 -10 1 -9 2 -9 1 -10 0 -9 1 -9 0 -10 0 -9 -1 -10 0 -9 -1 -9 -2 -10 -1 -9 -2 -9 -3 -10 -2 -9 -3 -10 -3 -9 -3 -9 -4 -10 -4 -9 -4 -9 -5 -10 0 0 350 150z"/>
  </g>
  <line class="fil0 str0" x1="10498" y1="5867" x2="10498" y2= "2581" />
  <g>
   <path class="fil2" d="M13305 2606l-2842 0 0 -50 2842 0 0 50zm176 -25l-350 150 5 -10 4 -9 4 -9 3 -10 4 -9 3 -10 3 -9 2 -9 2 -10 2 -9 2 -9 1 -10 1 -9 1 -10 0 -9 0 -9 0 -10 0 -9 -1 -9 -1 -10 -1 -9 -2 -10 -2 -9 -2 -9 -2 -10 -3 -9 -3 -9 -4 -10 -3 -9 -4 -10 -4 -9 -5 -9 0 0 350 150z"/>
  </g>
  <g>
   <path class="fil2" d="M9475 6671l-4501 0 0 -50 4501 0 0 50zm176 -25l-350 150 5 -9 4 -10 4 -9 4 -9 3 -10 3 -9 3 -9 2 -10 2 -9 2 -10 2 -9 1 -9 1 -10 1 -9 0 -9 1 -10 -1 -9 0 -10 -1 -9 -1 -9 -1 -10 -2 -9 -2 -9 -2 -10 -2 -9 -3 -10 -3 -9 -3 -9 -4 -10 -4 -9 -4 -9 -5 -10 0 0 350 150z"/>
  </g>
  <text x="10036" y="6933"  class="fil1 fnt3">S/P</text>
  <text x="13520" y="8417"  class="fil1 fnt3">+90</text>
  <text x="14477" y="8135"  class="fil1 fnt4">o</text>
  <text x="6280" y="6361"  class="fil1 fnt3">Serial data</text>
  <g>
   <path class="fil2" d="M19757 6790l-1468 0 0 -50 1468 0 0 50zm176 -25l-350 150 5 -10 4 -9 4 -9 3 -10 4 -9 3 -9 3 -10 2 -9 2 -10 2 -9 2 -9 1 -10 1 -9 1 -9 0 -10 0 -9 0 -10 0 -9 -1 -9 -1 -10 -1 -9 -2 -9 -2 -10 -2 -9 -2 -10 -3 -9 -3 -9 -4 -10 -3 -9 -4 -9 -4 -10 -5 -9 0 0 350 150z"/>
  </g>
  <text x="12239" y="1573"  class="fil1 fnt3">In-phase (I) branch</text>
  <text x="12205" y="12246"  class="fil1 fnt3">Quadrature (Q) branch</text>
  <text x="9090" y="3565"  class="fil1 fnt3">Even</text>
  <text x="9090" y="4196"  class="fil1 fnt3">bits</text>
  <text x="9104" y="9037"  class="fil1 fnt3">Odd</text>
  <text x="9104" y="9667"  class="fil1 fnt3">bits</text>
  <text x="20446" y="3519"  class="fil1 fnt3">Modulated</text>
  <text x="20446" y="4150"  class="fil1 fnt3">Carrier Waveform,</text>
  <text x="20446" y="4780"  class="fil1 fnt3">i.e. carrier bursts</text>
  <text x="20446" y="5411"  class="fil1 fnt3">getting 4 possible </text>
  <text x="20446" y="6041"  class="fil1 fnt3">phase shifts.</text>
  <text x="14969" y="5368"  class="fil1 fnt3">Carrier</text>
  <text x="14969" y="5999"  class="fil1 fnt3">Source</text>
  <g>
   <line class="fil3 str1" x1="20538" y1="9543" x2="23378" y2= "9543" />
   <polygon id="1" class="fil4" points="20854,9385 20538,9543 20854,9701 20696,9543 "/>
   <polygon id="2" class="fil4" points="23061,9385 23378,9543 23061,9701 23219,9543 "/>
  </g>
  <path class="fil0 str2" d="M20533 7788c32,-759 66,-1138 98,-1138 32,0 66,761 98,1138 32,377 62,1135 98,1135 37,0 78,-379 122,-1135"/>
  <path class="fil0 str2" d="M20949 7788c31,-759 66,-1138 98,-1138 32,0 66,761 98,1138 32,377 64,1135 98,1135 34,0 78,-379 119,-1135"/>
  <path class="fil0 str2" d="M21376 7774c32,-756 68,-1135 100,-1135 32,0 66,758 98,1135 32,377 64,1135 101,1135 36,0 78,-379 121,-1135"/>
  <path class="fil0 str2" d="M21796 7774c32,-756 66,-1135 98,-1135 32,0 64,758 96,1135 32,377 62,1135 96,1135 34,0 75,-379 119,-1135"/>
  <path class="fil0 str2" d="M22205 7774c32,-756 64,-1135 96,-1135 32,0 64,758 96,1135 32,377 64,1135 98,1135 34,0 75,-379 117,-1135"/>
  <path class="fil0 str2" d="M22612 7774c31,-756 68,-1135 100,-1135 32,0 69,758 101,1135 32,377 61,1135 98,1135 36,0 80,-379 123,-1135"/>
  <path class="fil0 str2" d="M23052 7778c32,-772 69,-1159 101,-1159 32,0 68,774 100,1159"/>
  <text x="21663" y="10264"  class="fil1 fnt5">T</text>
  <g>
   <path class="fil2" d="M25361 7758l-4828 42 0 -25 4827 -42 1 25zm125 -14l-248 109 3 -7 3 -7 2 -6 3 -7 2 -7 2 -6 2 -7 2 -7 2 -6 1 -7 1 -7 1 -6 1 -7 0 -7 0 -6 0 -7 0 -7 0 -6 -1 -7 -1 -7 -1 -6 -1 -7 -1 -7 -2 -6 -2 -7 -2 -7 -2 -6 -2 -7 -3 -7 -3 -6 -3 -7 -3 -7 0 0 250 105z"/>
  </g>
  <text x="24073" y="7377"  class="fil1 fnt5">A</text>
  <text x="24450" y="7490"  class="fil1 fnt6">c</text>
  <g>
   <path class="fil2" d="M23984 6722l-171 2 85 -133 86 131zm-172 -130l-1 -18 172 -2 0 36 -171 2 0 -18zm84 1100l-10 -973 25 0 10 973 -25 0zm98 -5l-84 133 -87 -131 171 -2zm-170 134l0 -18 171 -2 1 36 -172 2 0 -18z"/>
  </g>
  <line class="fil0 str3" x1="20229" y1="6676" x2="24285" y2= "6605" />
  <text x="25521" y="8308"  class="fil1 fnt5">t</text>
  <text x="20199" y="11102"  class="fil1 fnt3">Symbol duration </text>
  <text x="24779" y="11102"  class="fil1 fnt3"> is </text>
  <text x="24434" y="11102"  class="fil1 fnt5">T</text>
  <text x="20199" y="11732"  class="fil1 fnt3">equal to two bit times.</text>
 </g>
</svg>
